<?xml version="1.0" encoding="UTF-8"?>
<svg id="Calque_1" data-name="Calque 1" xmlns="http://www.w3.org/2000/svg" xmlns:xlink="http://www.w3.org/1999/xlink" viewBox="0 0 447.25 200.14">
  <defs>
    <style>
      .cls-1 {
        fill: url(#Dégradé_sans_nom_14);
      }

      .cls-2 {
        fill: green;
      }

      .cls-3 {
        fill: #ff7f00;
      }
    </style>
    <linearGradient id="Dégradé_sans_nom_14" data-name="Dégradé sans nom 14" x1="150.44" y1="182.18" x2="363.77" y2="182.18" gradientUnits="userSpaceOnUse">
      <stop offset=".01" stop-color="#ff7f00"/>
      <stop offset=".06" stop-color="#fe9126"/>
      <stop offset=".17" stop-color="#fcb570"/>
      <stop offset=".27" stop-color="#fad2aa"/>
      <stop offset=".35" stop-color="#f9e7d5"/>
      <stop offset=".42" stop-color="#f9f4ef"/>
      <stop offset=".46" stop-color="#f9f9f9"/>
      <stop offset=".51" stop-color="#f4f6f4"/>
      <stop offset=".58" stop-color="#e6efe6"/>
      <stop offset=".66" stop-color="#cee4ce"/>
      <stop offset=".73" stop-color="#aed4ae"/>
      <stop offset=".81" stop-color="#84c084"/>
      <stop offset=".89" stop-color="#50a750"/>
      <stop offset=".97" stop-color="#158a15"/>
      <stop offset="1" stop-color="green"/>
    </linearGradient>
  </defs>
  <path class="cls-3" d="m150.48,74.03c-.52-28.36,19.89-55.47,52.61-58.63,15.36-1.49,29.27,2.34,41.68,11.4,7.04,5.14,8.83,12.47,5.24,19.72-3.24,6.54-9.89,8.68-16.28,5.13-2.98-1.65-5.76-3.65-8.77-5.24-12.12-6.42-23.93-6.1-35.26,1.98-4.63,3.3-8.05,7.69-9.8,13.02-3.97,12.11-2.69,23.49,6.36,33.06,9.14,9.67,20.42,11.92,33.01,8.34,3.61-1.02,6.89-2.84,10.11-4.74,1.4-.82,2.75-1.74,4.2-2.46,6.11-3.04,11.2-2.05,15.21,2.87,3.91,4.79,4.07,11.28.31,16.18-1.59,2.07-3.52,3.81-5.63,5.34-22.64,16.3-53.41,15.93-75.1-4.53-11.76-11.09-18.52-24.91-17.88-41.44Z"/>
  <path class="cls-3" d="m.17,93.02c0-23.63,0-47.26,0-70.89,0-2.21-.04-4.43.11-6.63C.82,8.12,6.14,2.31,13.14,1.94c9.55-.5,19.08-.87,28.68-.39,11.49.57,23.03.69,34.53-.19,4.22-.32,8.42-.14,12.63.4,6.78.87,11.91,5.33,13.19,12.3,1.32,7.22.62,14.57.42,21.86-.05,1.76-1.03,3.19-2.49,4.17-2.77,1.86-5.72.66-6.23-2.74-.32-2.16-.08-4.41-.2-6.61-.22-4.07-1.11-5.03-5.08-5.1-4.7-.09-9.41.02-14.12.02-15.25-.01-30.51,0-45.76-.08-4.21-.02-8.42-.47-12.63-.54-5.48-.09-6.56,1.03-6.57,6.79-.03,18.02,0,36.04-.01,54.06,0,21.25-.03,42.5-.05,63.75,0,7.31.13,7.43,7.04,7.42,23.2-.02,46.41-.02,69.61-.04,1.3,0,2.6-.02,3.89-.03,2.32,0,3.67-1.09,3.73-3.65.02-1.02,0-2.06.19-3.05.44-2.25,1.88-3.61,4.01-3.83,2.24-.24,3.62,1.15,4.39,3.26.12.32.24.65.25.98.15,7.63,1.05,15.33-.58,22.85-1.61,7.46-6.73,11.52-14.09,11.54-24.01.07-48.03.09-72.04,0-10.1-.04-16-7.13-15.85-17.61.28-18.52.15-37.06.19-55.59.01-6.29,0-12.58,0-18.87h-.03Zm51.75,84.6c3.5-.1,6.64-3.38,6.54-6.83-.11-3.57-3.63-7.07-7.1-7.05-3.36.02-6.4,3.34-6.42,6.99-.02,3.85,3.16,6.99,6.97,6.89Zm-.52-162.3c1.94-.1,4.04-.14,6.13-.33.82-.08,1.53-.59,1.52-1.64,0-.79-.5-1.33-1.15-1.41-4.18-.49-8.38-.51-12.56.03-.86.11-1.43.88-1.29,1.84.1.69.66,1.18,1.37,1.22,1.93.12,3.87.19,5.97.29Z"/>
  <path class="cls-2" d="m58.86,129.97c-13.95-.42-25.21-5.89-33.01-17.76-2.25-3.42-3.61-7.22-4.43-11.2-2.11-10.14-1.06-19.84,4.42-28.78,4.37-7.13,10.7-12,18.44-15.04,10.12-3.98,20.43-4.49,30.88-1.49,11.76,3.37,18.52,12.71,17.84,24.67-.39,6.77-3.69,11.91-9.81,14.65-8.8,3.94-18.13,5.99-27.83,5.84-4.65-.07-7.78-2.6-8.47-6.53-.75-4.22,1.36-7.74,5.75-9.46,3.03-1.19,6.25-1.6,9.45-2.04,2.93-.41,5.88-.72,8.71-1.64,1.87-.6,3.54-1.49,3.81-3.7.2-1.66-1.25-3.38-3.73-4.26-3.79-1.34-7.73-.9-11.6-.48-3.36.36-6.55,1.47-9.55,3.1-7.62,4.15-11.29,11.61-9.94,20.35,1.09,7.07,7.06,12.74,15.08,14.37,5.28,1.08,10.45.55,15.54-1,2.32-.7,4.58-1.58,6.88-2.36,4.16-1.4,8.76.35,10.73,4.05,2.18,4.09,1,9.27-2.87,11.81-3.63,2.38-7.65,3.98-11.88,4.95-4.72,1.08-9.48,2.05-14.4,1.93Z"/>
  <path class="cls-3" d="m335.24,96.97c2.09-6.15,3.89-11.32,5.62-16.52,3.37-10.16,6.67-20.34,10.07-30.49.72-2.14,1.59-4.27,2.7-6.24,3.24-5.77,10.39-8.26,16.38-5.87,6.32,2.53,9.57,8.65,8.03,15.33-.44,1.89-1.05,3.75-1.74,5.57-6.96,18.52-13.96,37.03-20.95,55.54-.4,1.06-.8,2.13-1.24,3.17-5.44,12.76-20.7,16.88-32.02,8.73-3.19-2.3-5.09-5.41-6.43-8.94-3.35-8.79-6.63-17.6-9.93-26.41-3.81-10.17-7.64-20.34-11.41-30.53-.95-2.58-1.92-5.19-2.5-7.88-1.36-6.34,2.2-12.31,8.48-14.62,5.93-2.18,12.45.07,15.54,5.59,1.26,2.25,2.18,4.71,3.03,7.15,5.07,14.55,10.07,29.12,15.1,43.68.21.59.53,1.15,1.28,2.74Z"/>
  <path class="cls-3" d="m447.25,64.5c0,15.24,0,30.47,0,45.71,0,2.6-.09,5.18-.53,7.75-1.26,7.34-6.98,12.35-13.7,11.85-5.49-.4-12.59-5.44-12.48-13.69.29-20.26.18-40.52.07-60.78-.07-13.45-.36-26.89-.64-40.33-.09-4.48,1.25-8.26,4.52-11.36,7.39-6.99,19.57-3.44,22,6.45.62,2.53.73,5.12.73,7.73-.02,15.56-.01,31.12-.01,46.68h.03Z"/>
  <path class="cls-2" d="m123.38,95.64c-4.17,0-7.08.08-9.99-.02-3.14-.11-6.1-.95-8.49-3.12-3.95-3.58-5.51-8.11-4.03-13.19,1.54-5.29,5.51-8.63,10.94-8.99,7.09-.47,14.25-.42,21.35-.03,6.33.35,11.37,5.82,11.62,11.69.27,6.44-4.08,11.86-10.54,13.2-4.01.84-8.07.35-10.85.46Z"/>
  <path class="cls-3" d="m285.75,83.15c0,10.87.07,21.74-.03,32.61-.06,6.76-3.46,11.52-9.23,13.41-7.19,2.34-14.91-2.12-16.92-9.74-.46-1.75-.48-3.53-.48-5.31,0-20.44,0-40.89-.02-61.33,0-2.45.13-4.86,1.02-7.18,2.35-6.11,8.68-9.63,15.31-8.5,5.6.95,10.23,6.29,10.31,12.45.15,11.19.04,22.39.04,33.58Z"/>
  <path class="cls-3" d="m258.02,15.89c-.07-8.08,6.37-14.65,14.38-14.69,7.65-.04,14.76,6.95,14.81,14.55.04,7.49-6.69,14.51-14.08,14.68-8.27.19-15.03-6.32-15.1-14.54Z"/>
  <path class="cls-3" d="m383.54,83.02c0-9.73.02-19.45-.01-29.18-.01-2.95.22-5.83,1.39-8.57,2.5-5.86,8.84-9.26,15.08-8.1,5.57,1.04,9.93,6.41,10.19,12.57.03.81.03,1.62.04,2.43.1,17.34-.25,34.68.58,52.01.22,4.54-.19,9.07-.62,13.59-.62,6.49-4.99,11.05-11.45,11.95-5.8.81-12.12-3.14-14.17-8.88-.89-2.48-1.03-5.06-1.02-7.67.02-10.05,0-20.1,0-30.15h-.02Z"/>
  <path class="cls-3" d="m411.92,15.73c.1,7.98-6.36,14.49-14.53,14.63-7.66.13-14.81-6.83-14.83-14.45-.02-7.58,7.03-14.7,14.65-14.77,7.77-.08,14.61,6.71,14.71,14.6Z"/>
  <path class="cls-2" d="m405.08,200.07c-14.91,1.11-29.91-11.2-29.76-29.72.15-17.28,12.49-29.59,29.37-30.02,7.35-.18,14.22,1.29,19.62,6.8,2.87,2.93,3.3,6.05,1.37,9.24-1.8,2.99-4.65,3.99-7.89,2.62-1.79-.76-3.46-1.79-5.23-2.58-6.59-2.91-14.69-.99-18.94,4.44-3.87,4.94-3.91,13.5-.1,18.72,4.45,6.09,11.56,8.17,18.55,5.33,1.79-.73,3.47-1.75,5.22-2.59,3.41-1.62,5.92-1.23,7.89,1.18,2.21,2.7,2.25,6.08,0,8.92-3.89,4.9-9.3,6.85-15.25,7.63-1.59.21-3.24.03-4.86.03Z"/>
  <path class="cls-2" d="m429.86,176.36c0-4.86-.01-9.71,0-14.57,0-1.8.21-3.56,1.25-5.11,2.89-4.27,9.26-3.93,11.7.62.87,1.63,1.01,3.4,1.01,5.19.02,9.23.05,18.46.03,27.69,0,1.28-.08,2.61-.4,3.85-.94,3.62-4.16,5.92-7.54,5.53-3.13-.36-5.79-3.09-5.91-6.68-.19-5.5-.05-11.01-.05-16.51-.03,0-.06,0-.09,0Z"/>
  <path class="cls-2" d="m443.59,143c-.05,3.66-3.5,6.9-7.35,6.88-3.94-.02-7.14-3.22-7.05-7.06.09-3.77,3.88-7.13,7.87-6.97,3.46.14,6.57,3.55,6.53,7.15Z"/>
  <rect class="cls-1" x="150.44" y="179.15" width="213.33" height="6.06"/>
</svg>